<?xml version="1.0" standalone="no"?>
<!DOCTYPE svg PUBLIC "-//W3C//DTD SVG 20010904//EN"
 "http://www.w3.org/TR/2001/REC-SVG-20010904/DTD/svg10.dtd">
<svg version="1.0" xmlns="http://www.w3.org/2000/svg"
 width="260.000000pt" height="260.000000pt" viewBox="0 0 260.000000 260.000000"
 preserveAspectRatio="xMidYMid meet">
<metadata>
Created by potrace 1.11, written by Peter Selinger 2001-2013
</metadata>
<g transform="translate(0.000000,260.000000) scale(0.100000,-0.100000)"
fill="#000000" stroke="none">
<path d="M1171 1845 c-51 -16 -104 -63 -134 -120 -21 -38 -22 -54 -25 -390 -4
-381 0 -423 47 -497 43 -68 102 -93 216 -93 80 0 95 3 137 28 26 15 57 41 69
58 45 64 49 100 49 474 0 397 -3 418 -71 486 -63 63 -185 86 -288 54z m165
-166 c18 -20 19 -41 19 -379 0 -338 -1 -359 -19 -379 -21 -23 -83 -29 -116
-11 -35 19 -40 63 -40 391 0 320 4 361 37 387 28 20 97 15 119 -9z"/>
<path d="M420 1300 l0 -540 85 0 85 0 0 220 0 220 68 0 c97 0 162 22 205 69
53 59 62 96 62 261 0 144 0 145 -31 200 -25 43 -42 61 -84 83 -51 26 -56 27
-221 27 l-169 0 0 -540z m295 378 c36 -16 48 -66 44 -181 -5 -123 -19 -141
-107 -142 l-57 0 -3 168 -2 167 49 0 c28 0 62 -5 76 -12z"/>
<path d="M1650 1299 l0 -540 188 3 189 3 48 30 c35 21 56 45 74 80 24 46 26
59 26 190 0 131 -2 143 -25 185 -15 26 -40 53 -62 65 l-36 20 32 22 c53 34 70
82 74 205 3 97 1 113 -21 161 -45 100 -93 117 -318 117 l-169 0 0 -541z m294
380 c37 -17 49 -57 45 -148 -5 -104 -21 -123 -109 -129 l-60 -4 0 146 0 146
50 0 c27 0 60 -5 74 -11z m34 -463 c24 -23 26 -35 30 -120 7 -156 -14 -186
-128 -186 l-60 0 0 171 0 172 66 -6 c54 -4 71 -10 92 -31z"/>
</g>
</svg>
